<?xml version="1.0" encoding="UTF-8" standalone="no"?>
<!-- Created with Inkscape (http://www.inkscape.org/) -->

<svg
   version="1.1"
   id="svg824"
   xml:space="preserve"
   width="504"
   height="441.33334"
   viewBox="0 0 504 441.33334"
   sodipodi:docname="persistence_impact.svg"
   inkscape:version="1.1.2 (b8e25be833, 2022-02-05)"
   xmlns:inkscape="http://www.inkscape.org/namespaces/inkscape"
   xmlns:sodipodi="http://sodipodi.sourceforge.net/DTD/sodipodi-0.dtd"
   xmlns="http://www.w3.org/2000/svg"
   xmlns:svg="http://www.w3.org/2000/svg"><defs
     id="defs828" /><sodipodi:namedview
     id="namedview826"
     pagecolor="#ffffff"
     bordercolor="#666666"
     borderopacity="1.0"
     inkscape:pageshadow="2"
     inkscape:pageopacity="0.0"
     inkscape:pagecheckerboard="0"
     showgrid="false"
     inkscape:zoom="1.7003968"
     inkscape:cx="252"
     inkscape:cy="220.53676"
     inkscape:window-width="1920"
     inkscape:window-height="1046"
     inkscape:window-x="-11"
     inkscape:window-y="-11"
     inkscape:window-maximized="1"
     inkscape:current-layer="g832" /><g
     id="g830"
     inkscape:groupmode="layer"
     inkscape:label="ink_ext_XXXXXX"
     transform="matrix(1.3333333,0,0,-1.3333333,0,441.33333)"><g
       id="g832"
       transform="scale(0.1)"><path
         d="M 175.352,292.379 H 3758.36"
         style="fill:none;stroke:#000000;stroke-width:7.49999;stroke-linecap:butt;stroke-linejoin:miter;stroke-miterlimit:4;stroke-dasharray:none;stroke-opacity:1"
         id="path834" /><path
         d="m 3683.36,292.379 -30,-30 105,30 -105,30 z"
         style="fill:#000000;fill-opacity:1;fill-rule:evenodd;stroke:none"
         id="path836" /><path
         d="m 3683.36,292.379 -30,-30 105,30 -105,30 z"
         style="fill:none;stroke:#000000;stroke-width:7.99999;stroke-linecap:butt;stroke-linejoin:miter;stroke-miterlimit:4;stroke-dasharray:none;stroke-opacity:1"
         id="path838" /><path
         d="M 175.352,292.379 V 3289.92"
         style="fill:none;stroke:#000000;stroke-width:6.85993;stroke-linecap:butt;stroke-linejoin:miter;stroke-miterlimit:4;stroke-dasharray:none;stroke-opacity:1"
         id="path840" /><path
         d="m 175.352,3221.29 27.418,-27.42 -27.418,96.05 -27.461,-96.05 z"
         style="fill:#000000;fill-opacity:1;fill-rule:evenodd;stroke:none"
         id="path842" /><path
         d="m 175.352,3221.29 27.418,-27.42 -27.418,96.05 -27.461,-96.05 z"
         style="fill:none;stroke:#000000;stroke-width:7.31726;stroke-linecap:butt;stroke-linejoin:miter;stroke-miterlimit:4;stroke-dasharray:none;stroke-opacity:1"
         id="path844" /><path
         d="m 3499.02,164.18 c 1.76,5.742 4.42,16.84 4.42,18.16 0,4.851 -3.56,7.5 -8.44,7.5 -0.43,0 -8.4,-0.43 -11.05,-10.149 L 3443.2,16.25 c -0.9,-3.5508 -0.9,-3.9805 -0.9,-4.8789 0,-3.99219 3.13,-7.53907 7.97,-7.53907 5.78,0 9.3,5.3086 9.77,6.20707 1.33,2.2304 4.84,17.2617 15.51,60.6601 9.29,-7.539 22.15,-8.8594 27.46,-8.8594 19.92,0 30.97,12.8516 37.61,20.8204 2.66,-12.8204 13.33,-20.8204 25.71,-20.8204 9.72,0 16.4,6.6797 20.82,15.5 4.88,10.1993 8.4,27.4612 8.4,27.9302 0,3.089 -2.66,3.089 -3.52,3.089 -2.65,0 -3.12,-1.328 -3.98,-5.308 -4.46,-18.1721 -9.77,-35.0002 -21.29,-35.0002 -7.5,0 -8.4,7.539 -8.4,12.8476 0,6.211 3.09,19.4926 5.31,29.6916 l 7.97,30.539 c 0.9,3.992 3.98,14.609 4.88,19.07 1.33,6.641 4.42,17.262 4.42,19.02 0,4.883 -3.99,7.543 -8.4,7.543 -1.33,0 -8.87,-0.43 -11.09,-9.774 l -13.29,-53.117 c -3.08,-14.18 -6.21,-25.7108 -7.07,-28.789 -0.47,-1.332 -13.75,-27.0312 -36.75,-27.0312 -14.18,0 -20.82,9.289 -20.82,24.8008 0,7.9684 1.75,15.9374 3.98,23.9104 z"
         style="fill:#000000;fill-opacity:1;fill-rule:nonzero;stroke:none"
         id="path846" /><path
         d="m 1947.11,293.09 v 29.289"
         style="fill:none;stroke:#000000;stroke-width:7.49999;stroke-linecap:butt;stroke-linejoin:miter;stroke-miterlimit:4;stroke-dasharray:none;stroke-opacity:1"
         id="path848" /><path
         d="m 1044.14,293.91 v 29.25"
         style="fill:none;stroke:#000000;stroke-width:7.49999;stroke-linecap:butt;stroke-linejoin:miter;stroke-miterlimit:4;stroke-dasharray:none;stroke-opacity:1"
         id="path850" /><path
         d="m 2775.04,295.16 v 29.289"
         style="fill:none;stroke:#000000;stroke-width:7.49999;stroke-linecap:butt;stroke-linejoin:miter;stroke-miterlimit:4;stroke-dasharray:none;stroke-opacity:1"
         id="path852" /><g
         id="g854"
         transform="scale(10)"><text
           transform="matrix(1,0,0,-1,189.745,10.9363)"
           style="font-variant:normal;font-weight:normal;font-size:19.8587px;font-family:'Times New Roman';-inkscape-font-specification:TimesNewRomanPSMT;writing-mode:lr-tb;fill:#000000;fill-opacity:1;fill-rule:nonzero;stroke:none"
           id="text858"><tspan
             x="0"
             y="0"
             id="tspan856">0</tspan></text><text
           transform="matrix(1,0,0,-1,273.6286,9.66325)"
           style="font-variant:normal;font-weight:normal;font-size:21.1303px;font-family:'Times New Roman';-inkscape-font-specification:TimesNewRomanPSMT;writing-mode:lr-tb;fill:#000000;fill-opacity:1;fill-rule:nonzero;stroke:none"
           id="text862"><tspan
             x="0"
             y="0"
             id="tspan860">1</tspan></text><text
           transform="matrix(1,0,0,-1,94.0246,7.44841)"
           style="font-variant:normal;font-weight:normal;font-size:23.1822px;font-family:'Times New Roman';-inkscape-font-specification:TimesNewRomanPSMT;writing-mode:lr-tb;fill:#000000;fill-opacity:1;fill-rule:nonzero;stroke:none"
           id="text866"><tspan
             x="0 7.7196727"
             y="0"
             sodipodi:role="line"
             id="tspan864">-1</tspan></text></g><path
         d="M 174.648,1820.59 H 203.91"
         style="fill:none;stroke:#000000;stroke-width:7.49999;stroke-linecap:butt;stroke-linejoin:miter;stroke-miterlimit:4;stroke-dasharray:none;stroke-opacity:1"
         id="path868" /><g
         id="g870"
         transform="scale(10)"><text
           transform="matrix(1,0,0,-1,-0.0410156,176.82)"
           style="font-variant:normal;font-weight:normal;font-size:19.8587px;font-family:'Times New Roman';-inkscape-font-specification:TimesNewRomanPSMT;writing-mode:lr-tb;fill:#000000;fill-opacity:1;fill-rule:nonzero;stroke:none"
           id="text874"><tspan
             x="0"
             y="0"
             id="tspan872">0</tspan></text></g><path
         d="M 1945.98,293.09 V 1818.75"
         style="fill:none;stroke:#000000;stroke-width:7.53554;stroke-linecap:butt;stroke-linejoin:miter;stroke-miterlimit:4;stroke-dasharray:7.53554, 60.2844;stroke-dashoffset:0;stroke-opacity:1"
         id="path876" /><path
         d="m 1945.98,1818.75 h 1770.9"
         style="fill:none;stroke:#4f65d0;stroke-width:34.0157;stroke-linecap:butt;stroke-linejoin:miter;stroke-miterlimit:4;stroke-dasharray:none;stroke-opacity:1"
         id="path878" /><path
         d="M 3690.9,847.77 1945.98,1818.75 3690.9,847.77"
         style="fill:none;stroke:#000000;stroke-width:22.6772;stroke-linecap:butt;stroke-linejoin:miter;stroke-miterlimit:4;stroke-dasharray:136.063, 136.063;stroke-dashoffset:0;stroke-opacity:1"
         id="path880"
         sodipodi:nodetypes="ccc" /><path
         d="M 171.371,2772.62 1945.78,1821.09"
         style="fill:none;stroke:#d35050;stroke-width:34.0157;stroke-linecap:butt;stroke-linejoin:miter;stroke-miterlimit:4;stroke-dasharray:none;stroke-opacity:1"
         id="path882" /><path
         d="M 203.91,1820.59 H 1944.84"
         style="fill:none;stroke:#000000;stroke-width:8.04963;stroke-linecap:butt;stroke-linejoin:miter;stroke-miterlimit:4;stroke-dasharray:8.04963, 64.3972;stroke-dashoffset:0;stroke-opacity:1"
         id="path884" /><path
         d="m 346.371,3044.53 c 1.52,6.02 1.789,7.58 13.59,7.58 4.34,0 5.629,0 5.629,3.36 0,1.83 -1.801,1.83 -2.309,1.83 -4.609,0 -16.402,-0.5 -21.011,-0.5 -4.61,0 -16.18,0.5 -21.02,0.5 -1.289,0 -3.09,0 -3.09,-3.35 0,-1.84 1.531,-1.84 4.61,-1.84 0.281,0 3.32,0 6.179,-0.27 3.039,-0.51 4.332,-0.51 4.332,-2.86 0,-0.54 0,-0.78 -0.511,-3.12 l -9.719,-40.39 h -50 l 9.719,39.06 c 1.289,6.02 1.8,7.58 13.601,7.58 4.328,0 5.617,0 5.617,3.36 0,1.83 -1.789,1.83 -2.297,1.83 -4.613,0 -16.41,-0.5 -21.019,-0.5 -4.613,0 -16.172,0.5 -21.012,0.5 -1.289,0 -3.09,0 -3.09,-3.35 0,-1.84 1.52,-1.84 4.61,-1.84 0.269,0 3.32,0 6.172,-0.27 2.808,-0.51 4.339,-0.51 4.339,-2.86 0,-0.54 0,-1.05 -0.511,-3.12 l -22.032,-89.14 c -1.558,-6.52 -1.839,-7.81 -14.878,-7.81 -2.86,0 -4.379,0 -4.379,-3.4 0,-1.84 2.07,-1.84 2.308,-1.84 4.641,0 16.172,0.55 20.781,0.55 3.321,0 6.911,-0.27 10.5,-0.27 3.598,0 7.192,-0.28 10.508,-0.28 1.293,0 3.321,0 3.321,3.4 0,1.84 -1.52,1.84 -4.61,1.84 -6.129,0 -10.5,0 -10.5,2.89 0,1.01 0.27,1.79 0.27,2.85 l 11.293,45.58 h 49.718 c -6.64,-27.61 -10.5,-43.51 -11.281,-45.85 -1.527,-5.47 -4.609,-5.47 -14.847,-5.47 -2.34,0 -3.872,0 -3.872,-3.4 0,-1.84 2.071,-1.84 2.309,-1.84 4.652,0 16.172,0.55 20.781,0.55 3.321,0 6.91,-0.27 10.508,-0.27 3.594,0 7.192,-0.28 10.512,-0.28 1.289,0 3.32,0 3.32,3.4 0,1.84 -1.531,1.84 -4.609,1.84 -5.86,0 -10.512,0 -10.512,2.89 0,1.01 0.27,1.79 0.551,2.85 z"
         style="fill:#000000;fill-opacity:1;fill-rule:nonzero;stroke:none"
         id="path886" /><path
         d="m 424.84,2903.83 c 0,0.51 0,0.78 -2.809,3.63 -20.269,20.86 -25.66,52.38 -25.66,77.93 0,28.95 6.129,57.85 26.399,78.44 2.07,2.07 2.07,2.34 2.07,2.85 0,1.33 -0.539,1.84 -1.559,1.84 -1.761,0 -16.402,-11.45 -26.133,-32.58 -8.199,-18.24 -10.269,-36.76 -10.269,-50.55 0,-13.05 1.793,-33.09 10.781,-52.11 10,-20.35 23.86,-31.29 25.621,-31.29 1.02,0 1.559,0.51 1.559,1.84 z"
         style="fill:#000000;fill-opacity:1;fill-rule:nonzero;stroke:none"
         id="path888" /><path
         d="m 490.98,2984.61 18.981,21.64 c 2.309,2.34 3.32,3.36 16.68,3.36 v 7.85 c -5.661,-0.27 -14.102,-0.55 -14.879,-0.55 -4.102,0 -12.313,0.55 -16.922,0.55 v -7.85 c 2.308,0 4.34,-0.23 6.14,-1.29 -0.511,-1.05 -0.511,-1.56 -1.289,-2.07 l -13.562,-15.63 -16.168,18.99 h 6.68 v 7.85 c -4.371,0 -14.653,-0.55 -20,-0.55 -5.121,0 -12.582,0.55 -17.969,0.55 v -7.85 h 11.797 l 25.39,-30.47 -21.519,-24.49 c -2.578,-3.13 -8.481,-3.13 -16.41,-3.13 v -7.85 c 5.621,0.28 14.34,0.55 15.121,0.55 4.097,0 13.59,-0.27 16.64,-0.55 v 7.85 c -2.812,0 -5.863,0.78 -5.863,1.8 0,0.27 0,0.27 1.012,1.56 l 15.898,18.24 17.934,-21.6 h -6.402 v -7.85 c 4.371,0.28 14.371,0.55 19.761,0.55 5.117,0 12.539,-0.27 17.93,-0.55 v 7.85 h -11.52 z"
         style="fill:#000000;fill-opacity:1;fill-rule:nonzero;stroke:none"
         id="path890" /><path
         d="m 580.66,2985.39 c 0,12.77 -1.789,32.85 -10.738,51.88 -9.762,20.31 -23.871,31.25 -25.391,31.25 -1.051,0 -1.801,-0.79 -1.801,-1.84 0,-0.51 0,-0.78 3.09,-3.91 16.129,-16.4 25.391,-42.73 25.391,-77.38 0,-28.67 -5.941,-57.85 -26.172,-78.71 -2.309,-2.07 -2.309,-2.34 -2.309,-2.85 0,-1.06 0.75,-1.84 1.801,-1.84 1.52,0 16.41,11.49 25.899,32.58 8.441,18.24 10.23,36.72 10.23,50.82 z"
         style="fill:#000000;fill-opacity:1;fill-rule:nonzero;stroke:none"
         id="path892" /><path
         d="M 1933.3179,1819.2236 174.68246,1820.59 1933.3179,1819.2236"
         style="fill:none;stroke:#000000;stroke-width:22.67719984;stroke-linecap:butt;stroke-linejoin:miter;stroke-miterlimit:4;stroke-dasharray:181.41759851,181.41759851;stroke-dashoffset:0;stroke-opacity:1"
         id="path880-4"
         sodipodi:nodetypes="ccc" /></g></g></svg>
